<svg xmlns="http://www.w3.org/2000/svg" viewBox="0 0 310.92 75.03"><defs><style>.cls-1{fill:#fff;}.cls-2{fill:#f3c300;}</style></defs><g id="Layer_2" data-name="Layer 2"><g id="Layer_1-2" data-name="Layer 1"><path class="cls-1" d="M118.2,1.11V47.68a1,1,0,0,1-1,1H109a1,1,0,0,1-1-1V29.5H97.59V47.68a1,1,0,0,1-1,1H88.36a1,1,0,0,1-1-1V1.11a1,1,0,0,1,1-1h8.26a1,1,0,0,1,1,1V19.3H108V1.11a1,1,0,0,1,1-1h8.25a1,1,0,0,1,1,1"/><path class="cls-1" d="M159.26,24.36a2.29,2.29,0,0,1-.69,1.81l-4,3.95-.21.14,7.08,17.42c.14.48-.48,1-1,1h-9.3a1.53,1.53,0,0,1-1.25-1l-6.8-16.87H140V47.68a1,1,0,0,1-1,1h-8.25a1,1,0,0,1-1-1V1.11a1,1,0,0,1,1-1h22.07a2.27,2.27,0,0,1,1.8.69l4,4a2.52,2.52,0,0,1,.69,1.94ZM140,20.61h7.28a.66.66,0,0,0,.49-.21l1.11-1.11a.6.6,0,0,0,.21-.55V12.22a.62.62,0,0,0-.21-.56l-1.11-1.11a.64.64,0,0,0-.55-.21H140Z"/><path class="cls-1" d="M203.53,1V47.61a1,1,0,0,1-1,1h-11a1.52,1.52,0,0,1-1.25-1l-8.47-23.18V47.61a1,1,0,0,1-1,1h-8.26a1,1,0,0,1-1-1V1a1,1,0,0,1,1-1H183c.48,0,.83.35,1,1H184l9.16,26.79.13.76V1a1,1,0,0,1,1-1h8.25a1,1,0,0,1,1,1"/><path class="cls-1" d="M215.65,6.53a2.54,2.54,0,0,1,.69-1.81L220.23.83A2.91,2.91,0,0,1,222,.07h18a2.79,2.79,0,0,1,1.8.76l3.89,3.89a2.51,2.51,0,0,1,.76,1.81h-.07a.24.24,0,0,1,.07.13V14a1,1,0,0,1-1,1h-8.25a1,1,0,0,1-1-1v-1.8a.76.76,0,0,0-.21-.49l-1.18-1.18a.72.72,0,0,0-.48-.2h-6.74a.85.85,0,0,0-.48.2l-1.11,1.18a.66.66,0,0,0-.28.49V36.92c.07.14.07.35.28.49l1,1h8.05l1-1a.76.76,0,0,0,.21-.49V34.84a1,1,0,0,1,1-1h8.25a1,1,0,0,1,1,1v7.84c-.07.35-.07.56-.76,1.25l-3.89,3.88a2.77,2.77,0,0,1-1.8.77H222a2.77,2.77,0,0,1-1.8-.77l-3.89-3.88a2.84,2.84,0,0,1-.69-1.8Z"/><path class="cls-1" d="M265.9,1.32V47.68a1,1,0,0,1-1,1h-8.26a1,1,0,0,1-1-1V1.32a1,1,0,0,1,1-1h8.26a1,1,0,0,1,1,1"/><path class="cls-1" d="M308.25,24.36a2.28,2.28,0,0,1-.7,1.81l-3.95,3.95-.21.14,7.08,17.42c.14.48-.49,1-1,1h-9.3a1.52,1.52,0,0,1-1.25-1l-6.8-16.87H289V47.68a1,1,0,0,1-1,1h-8.25a1,1,0,0,1-1-1V1.11a1,1,0,0,1,1-1H301.8a2.27,2.27,0,0,1,1.8.69l3.95,4a2.51,2.51,0,0,1,.7,1.94ZM289,20.61h7.28a.66.66,0,0,0,.49-.21l1.11-1.11a.6.6,0,0,0,.21-.55V12.22a.62.62,0,0,0-.21-.56l-1.11-1.11a.66.66,0,0,0-.56-.21H289Z"/><path class="cls-1" d="M91.32,63a.35.35,0,0,0-.13.29V70.7a.4.4,0,0,0,.13.31.42.42,0,0,0,.3.13h7.32a.4.4,0,0,1,.3.11.37.37,0,0,1,.13.3v3a.4.4,0,0,1-.13.31.42.42,0,0,1-.3.13H90.26a2.17,2.17,0,0,1-.41,0,1.38,1.38,0,0,1-.39-.14l-2.09-2.09a1.38,1.38,0,0,1-.14-.39,2.17,2.17,0,0,1,0-.41V62.12a2.17,2.17,0,0,1,0-.41,1.38,1.38,0,0,1,.14-.39l2.09-2.1.33-.12a.9.9,0,0,1,.26-.06h8.89a.38.38,0,0,1,.3.13.39.39,0,0,1,.13.31v3a.4.4,0,0,1-.13.31.41.41,0,0,1-.3.12H91.62a.41.41,0,0,0-.3.12"/><path class="cls-1" d="M98.94,75H90.26a2.12,2.12,0,0,1-.42,0,1.34,1.34,0,0,1-.4-.15l-2.11-2.1a1.25,1.25,0,0,1-.15-.41,2.37,2.37,0,0,1-.05-.42V62.12a2.18,2.18,0,0,1,.05-.42,1.34,1.34,0,0,1,.14-.4l2.11-2.11a2.55,2.55,0,0,1,.35-.14,1,1,0,0,1,.27-.06h8.89a.49.49,0,0,1,.34.14.5.5,0,0,1,.14.35v3a.46.46,0,0,1-.14.34.45.45,0,0,1-.34.14H91.62a.45.45,0,0,0-.27.1.36.36,0,0,0-.11.26V70.7a.41.41,0,0,0,.11.28.4.4,0,0,0,.27.11h7.32a.52.52,0,0,1,.34.12.46.46,0,0,1,.14.34v3a.46.46,0,0,1-.14.34.45.45,0,0,1-.34.14M90.05,59.09a.81.81,0,0,0-.24.06,1.85,1.85,0,0,0-.33.12L87.4,61.35a1.46,1.46,0,0,0-.12.37,2,2,0,0,0,0,.4v9.79a2.08,2.08,0,0,0,0,.4,1.15,1.15,0,0,0,.13.37l2.09,2.09a1.26,1.26,0,0,0,.36.12,2.08,2.08,0,0,0,.4,0h8.68a.37.37,0,0,0,.27-.12.37.37,0,0,0,.11-.27v-3a.33.33,0,0,0-.11-.26.4.4,0,0,0-.27-.11H91.62a.48.48,0,0,1-.34-.13.5.5,0,0,1-.14-.35V63.32a.45.45,0,0,1,.14-.33.53.53,0,0,1,.34-.13h7.32a.36.36,0,0,0,.27-.11.37.37,0,0,0,.11-.27v-3a.41.41,0,0,0-.11-.28.4.4,0,0,0-.27-.11Z"/><path class="cls-1" d="M119.89,61.32a2.6,2.6,0,0,1,.12.39,1.62,1.62,0,0,1,.06.41v9.79a1.62,1.62,0,0,1-.06.41,2.6,2.6,0,0,1-.12.39l-2.1,2.09a1.24,1.24,0,0,1-.4.14,2.27,2.27,0,0,1-.42,0h-7.22a2.17,2.17,0,0,1-.41,0,1.21,1.21,0,0,1-.38-.14l-2.1-2.09a1.38,1.38,0,0,1-.14-.39,2.1,2.1,0,0,1,0-.41V62.12a2.1,2.1,0,0,1,0-.41,1.38,1.38,0,0,1,.14-.39l2.1-2.1.38-.12a1.62,1.62,0,0,1,.41-.06H117a1.7,1.7,0,0,1,.42.06l.4.12ZM116,62.91h-5.35v8.23H116Z"/><path class="cls-1" d="M117,75h-7.22a2.27,2.27,0,0,1-.42,0,1.34,1.34,0,0,1-.4-.15l-2.1-2.1a1.25,1.25,0,0,1-.15-.41,2.18,2.18,0,0,1-.05-.42V62.12a2.18,2.18,0,0,1,.05-.42,1.34,1.34,0,0,1,.14-.4l2.1-2.11a2.47,2.47,0,0,1,.41-.14,1.76,1.76,0,0,1,.42-.06H117a1.92,1.92,0,0,1,.44.06,2.35,2.35,0,0,1,.4.13l2.11,2.11a2,2,0,0,1,.14.41,1.64,1.64,0,0,1,.06.42v9.79a1.7,1.7,0,0,1-.06.42,2.35,2.35,0,0,1-.13.4l-2.1,2.11a1.55,1.55,0,0,1-.43.15,2.29,2.29,0,0,1-.43,0m-7.22-15.94a1.48,1.48,0,0,0-.39.06,2.14,2.14,0,0,0-.38.12l-2.08,2.08a1.44,1.44,0,0,0-.13.37,2,2,0,0,0,0,.4v9.79a2,2,0,0,0,0,.4,1.44,1.44,0,0,0,.13.37L109,74.77a1.26,1.26,0,0,0,.36.12,2.08,2.08,0,0,0,.4,0H117a2.37,2.37,0,0,0,.42,0,1.21,1.21,0,0,0,.38-.13l2.08-2.09a2.5,2.5,0,0,0,.12-.36,2.08,2.08,0,0,0,0-.4V62.12a2,2,0,0,0-.18-.78l-2.08-2.08a2.64,2.64,0,0,0-.38-.11,1.62,1.62,0,0,0-.41-.06Zm.94,12.09,0-8.31H116l0,8.27Zm0-8.22v8.18l5.3,0L116,62.91Z"/><path class="cls-1" d="M140.67,59.17a.41.41,0,0,1,.12.31V74.55a.43.43,0,0,1-.12.31.44.44,0,0,1-.31.13h-3.28a.72.72,0,0,1-.36-.11.78.78,0,0,1-.28-.26l-5-9.29v9.22A.38.38,0,0,1,131,75h-3.14a.39.39,0,0,1-.44-.44V59.48a.39.39,0,0,1,.44-.44h3.23a.72.72,0,0,1,.36.11.59.59,0,0,1,.28.26l5,9.31V59.48a.42.42,0,0,1,.13-.31.39.39,0,0,1,.31-.13h3.16a.4.4,0,0,1,.31.13"/><path class="cls-1" d="M140.36,75h-3.28a.81.81,0,0,1-.39-.1.89.89,0,0,1-.29-.29l-4.94-9.12v9A.43.43,0,0,1,131,75h-3.14a.43.43,0,0,1-.49-.48V59.48a.44.44,0,0,1,.49-.49h3.23a.82.82,0,0,1,.39.11.71.71,0,0,1,.29.28l5,9.15V59.48a.49.49,0,0,1,.13-.35.5.5,0,0,1,.35-.14h3.16a.48.48,0,0,1,.48.49V74.55a.48.48,0,0,1-.48.48m-8.9-9.73,5,9.3a.72.72,0,0,0,.25.24.77.77,0,0,0,.34.1h3.28a.41.41,0,0,0,.39-.39V59.48a.38.38,0,0,0-.12-.28.37.37,0,0,0-.27-.11H137.2a.38.38,0,0,0-.39.39v9.24l-.09,0-5.06-9.32a.58.58,0,0,0-.25-.24.63.63,0,0,0-.34-.1h-3.23c-.27,0-.39.12-.39.39V74.55a.34.34,0,0,0,.39.39H131c.26,0,.38-.13.38-.39V65.33Z"/><path class="cls-1" d="M160.69,68.06a1.62,1.62,0,0,1,.06.41v3.44a1.62,1.62,0,0,1-.06.41,2.54,2.54,0,0,1-.13.39l-2.09,2.09a1.34,1.34,0,0,1-.4.14,2.37,2.37,0,0,1-.42,0H149a.39.39,0,0,1-.43-.44V71.8a.39.39,0,0,1,.13-.31.42.42,0,0,1,.3-.13h7.75a.4.4,0,0,0,.3-.11.37.37,0,0,0,.13-.3V69.06a.44.44,0,0,0-.43-.43h-5.1a2,2,0,0,1-.8-.16l-2.1-2.09a1.79,1.79,0,0,1-.13-.41,2.27,2.27,0,0,1-.05-.41V62.12a2.17,2.17,0,0,1,.05-.41,1.37,1.37,0,0,1,.13-.39l2.1-2.1.39-.12a1.56,1.56,0,0,1,.41-.06h8.17a.4.4,0,0,1,.31.13.41.41,0,0,1,.12.31v2.8a.41.41,0,0,1-.12.3.4.4,0,0,1-.31.13h-7.26a.45.45,0,0,0-.31.11.42.42,0,0,0-.13.3V65a.44.44,0,0,0,.44.44h5.1a2.27,2.27,0,0,1,.42,0,1.73,1.73,0,0,1,.4.12l2.09,2.09a3.31,3.31,0,0,1,.13.41"/><path class="cls-1" d="M157.65,75H149a.43.43,0,0,1-.48-.48V71.8a.5.5,0,0,1,.14-.35.48.48,0,0,1,.34-.14h7.75a.36.36,0,0,0,.27-.1.33.33,0,0,0,.11-.26V69.06a.39.39,0,0,0-.11-.27.37.37,0,0,0-.27-.11h-5.1a2.18,2.18,0,0,1-.42-.05,2.49,2.49,0,0,1-.4-.11l-2.11-2.11a1.69,1.69,0,0,1-.15-.43,2.37,2.37,0,0,1-.05-.42V62.12a2.18,2.18,0,0,1,.05-.42,1.34,1.34,0,0,1,.14-.4l2.1-2.11a2.47,2.47,0,0,1,.41-.14,1.77,1.77,0,0,1,.43-.06h8.17a.48.48,0,0,1,.48.49v2.8a.44.44,0,0,1-.14.34.46.46,0,0,1-.34.14h-7.26a.4.4,0,0,0-.28.1.35.35,0,0,0-.11.26V65a.38.38,0,0,0,.39.39h5.1a2.37,2.37,0,0,1,.43,0,1.83,1.83,0,0,1,.41.12l2.11,2.11a3.09,3.09,0,0,1,.14.43,2.27,2.27,0,0,1,0,.42v3.44a2.27,2.27,0,0,1,0,.42,3.79,3.79,0,0,1-.13.4l-2.11,2.11a1.47,1.47,0,0,1-.42.15,2.37,2.37,0,0,1-.43,0M149,71.41a.4.4,0,0,0-.27.11.41.41,0,0,0-.11.28v2.75c0,.26.12.39.38.39h8.66a2.27,2.27,0,0,0,.41,0,1.13,1.13,0,0,0,.38-.13l2.09-2.09c0-.09.07-.21.11-.36a1.55,1.55,0,0,0,.06-.4V68.47a1.62,1.62,0,0,0-.06-.4c0-.15-.08-.28-.12-.4l-2.09-2.08a2.64,2.64,0,0,0-.37-.1,2.17,2.17,0,0,0-.41,0h-5.1a.48.48,0,0,1-.49-.49V63.12a.4.4,0,0,1,.15-.33.45.45,0,0,1,.34-.13h7.26a.37.37,0,0,0,.27-.11.36.36,0,0,0,.12-.27v-2.8a.38.38,0,0,0-.12-.28.37.37,0,0,0-.27-.11h-8.17a1.55,1.55,0,0,0-.4.06,2.14,2.14,0,0,0-.38.12l-2.08,2.08a1.44,1.44,0,0,0-.13.37,2,2,0,0,0,0,.4v3.44a2,2,0,0,0,0,.4,1.5,1.5,0,0,0,.14.39l2.08,2.09a3.09,3.09,0,0,0,.37.1,1.94,1.94,0,0,0,.4,0h5.1a.48.48,0,0,1,.48.48V71a.46.46,0,0,1-.14.34.5.5,0,0,1-.34.12Z"/><path class="cls-1" d="M179.24,62.48a.4.4,0,0,1-.13.31.41.41,0,0,1-.3.12h-3.24a.45.45,0,0,0-.31.12.37.37,0,0,0-.12.29V74.55a.43.43,0,0,1-.12.31.38.38,0,0,1-.29.13h-3.17a.42.42,0,0,1-.3-.13.4.4,0,0,1-.13-.31V63.32A.4.4,0,0,0,171,63a.41.41,0,0,0-.3-.12h-3.23a.41.41,0,0,1-.31-.12.44.44,0,0,1-.13-.31v-3a.39.39,0,0,1,.44-.44h11.32a.38.38,0,0,1,.3.13.39.39,0,0,1,.13.31Z"/><path class="cls-1" d="M174.73,75h-3.17a.44.44,0,0,1-.34-.14.46.46,0,0,1-.14-.34V63.32a.35.35,0,0,0-.1-.26.38.38,0,0,0-.26-.1h-3.23a.48.48,0,0,1-.49-.48v-3a.44.44,0,0,1,.49-.49h11.32a.49.49,0,0,1,.34.14.5.5,0,0,1,.14.35v3a.46.46,0,0,1-.14.34.45.45,0,0,1-.34.14h-3.24a.41.41,0,0,0-.27.1.33.33,0,0,0-.11.26V74.55a.45.45,0,0,1-.13.34.4.4,0,0,1-.33.14m-7.24-15.94a.34.34,0,0,0-.39.39v3a.38.38,0,0,0,.39.38h3.23a.47.47,0,0,1,.33.13.44.44,0,0,1,.13.33V74.55a.37.37,0,0,0,.11.27.34.34,0,0,0,.27.12h3.17a.35.35,0,0,0,.26-.11.4.4,0,0,0,.1-.28V63.32a.45.45,0,0,1,.14-.33.51.51,0,0,1,.34-.13h3.24a.36.36,0,0,0,.27-.11.37.37,0,0,0,.11-.27v-3a.41.41,0,0,0-.11-.28.4.4,0,0,0-.27-.11Z"/><path class="cls-1" d="M199.85,74.62c.06.11.07.19,0,.26a.27.27,0,0,1-.25.1H196a.7.7,0,0,1-.36-.1.65.65,0,0,1-.28-.26l-2.55-4.33a.16.16,0,0,0-.16-.09h-2.57a.11.11,0,0,0-.12.12v4.23a.38.38,0,0,1-.43.43h-3.14a.38.38,0,0,1-.43-.43V59.48a.41.41,0,0,1,.12-.31.4.4,0,0,1,.31-.13h9.86a1.76,1.76,0,0,1,.42.06,2.35,2.35,0,0,1,.4.13l2.1,2.09q.06.16.12.39a1.62,1.62,0,0,1,.06.41v5a.93.93,0,0,1-.07.33,3,3,0,0,1-.16.36L197,69.91Zm-4.53-11.87h-5.51v3.88h5.51V62.75Z"/><path class="cls-1" d="M199.62,75H196a.81.81,0,0,1-.39-.1.73.73,0,0,1-.29-.29l-2.55-4.32a.11.11,0,0,0-.12-.07h-2.57c-.05,0-.07,0-.07.07v4.23a.42.42,0,0,1-.48.48h-3.14a.42.42,0,0,1-.48-.48V59.48a.48.48,0,0,1,.48-.49h9.86a1.84,1.84,0,0,1,.43.06,2.21,2.21,0,0,1,.41.13l2.11,2.11a2,2,0,0,1,.14.41,1.64,1.64,0,0,1,.06.42v5a1,1,0,0,1-.08.35,2,2,0,0,1-.16.36l-2.1,2.15,2.83,4.65a.29.29,0,0,1,0,.32.32.32,0,0,1-.29.12m-9.54-4.88h2.57a.21.21,0,0,1,.21.12l2.54,4.32a.7.7,0,0,0,.26.25.74.74,0,0,0,.34.1h3.62a.22.22,0,0,0,.21-.09.21.21,0,0,0,0-.21L197,69.93l2.1-2.2a1.43,1.43,0,0,0,.15-.33.88.88,0,0,0,.07-.32v-5a1.55,1.55,0,0,0-.06-.4,2.14,2.14,0,0,0-.12-.38L197,59.26a1.77,1.77,0,0,0-.38-.11,1.62,1.62,0,0,0-.41-.06h-9.86a.38.38,0,0,0-.38.39V74.55c0,.26.12.39.38.39h3.14a.34.34,0,0,0,.39-.39V70.32c0-.11.05-.17.16-.17m4.83-3.47h-5.1l-.05-4h5.56l.05,1v2.87Zm-5.06-3.88v3.83l2.57,0h2.9l0-.25V62.75Z"/><path class="cls-1" d="M220.31,59.17a.39.39,0,0,1,.13.31V72h0a1.84,1.84,0,0,1,0,.39,1.35,1.35,0,0,1-.12.34l-2.09,2.09a1.34,1.34,0,0,1-.4.14,2.37,2.37,0,0,1-.42,0h-7.22a2.17,2.17,0,0,1-.41,0,1.38,1.38,0,0,1-.39-.14l-2.09-2.09a1.38,1.38,0,0,1-.14-.39,2.1,2.1,0,0,1,0-.41V59.48a.41.41,0,0,1,.12-.31.4.4,0,0,1,.31-.13h3.14a.4.4,0,0,1,.31.13.41.41,0,0,1,.12.31V70.7a.44.44,0,0,0,.13.31.42.42,0,0,0,.31.13H216a.38.38,0,0,0,.29-.13.43.43,0,0,0,.12-.31V59.48a.41.41,0,0,1,.12-.31.4.4,0,0,1,.31-.13H220a.39.39,0,0,1,.31.13"/><path class="cls-1" d="M217.34,75h-7.22a2.27,2.27,0,0,1-.42,0,1.34,1.34,0,0,1-.4-.15l-2.11-2.1a1.52,1.52,0,0,1-.15-.41,2.27,2.27,0,0,1,0-.42V59.48a.48.48,0,0,1,.48-.49h3.14a.48.48,0,0,1,.48.49V70.7a.38.38,0,0,0,.39.39H216a.33.33,0,0,0,.25-.11.41.41,0,0,0,.11-.28V59.48a.46.46,0,0,1,.14-.35.48.48,0,0,1,.34-.14H220a.48.48,0,0,1,.49.49V72l-.05.07a.83.83,0,0,1,0,.34,1.26,1.26,0,0,1-.12.36l-2.11,2.11a1.37,1.37,0,0,1-.42.15,2.37,2.37,0,0,1-.43,0m-9.86-15.94a.37.37,0,0,0-.27.11.38.38,0,0,0-.12.28V71.91a2.08,2.08,0,0,0,0,.4,1.15,1.15,0,0,0,.13.37l2.09,2.09a1.26,1.26,0,0,0,.36.12,2.08,2.08,0,0,0,.4,0h7.22a2.17,2.17,0,0,0,.41,0,1.05,1.05,0,0,0,.38-.13l2.09-2.09a1.76,1.76,0,0,0,.1-.32,1.72,1.72,0,0,0,.05-.37v0h.07l-.05-12.45a.38.38,0,0,0-.39-.39h-3.16a.38.38,0,0,0-.38.39V70.7a.49.49,0,0,1-.13.34.42.42,0,0,1-.33.14h-4.51a.49.49,0,0,1-.35-.13.5.5,0,0,1-.14-.35V59.48a.38.38,0,0,0-.38-.39Z"/><path class="cls-1" d="M231.84,63a.35.35,0,0,0-.13.29V70.7a.4.4,0,0,0,.13.31.42.42,0,0,0,.3.13h7.31a.42.42,0,0,1,.31.11.37.37,0,0,1,.13.3v3a.4.4,0,0,1-.13.31.44.44,0,0,1-.31.13h-8.67a2.08,2.08,0,0,1-.41,0,1.27,1.27,0,0,1-.39-.14l-2.1-2.09a1.37,1.37,0,0,1-.13-.39,2.17,2.17,0,0,1-.05-.41V62.12a2.17,2.17,0,0,1,.05-.41,1.37,1.37,0,0,1,.13-.39l2.1-2.1.33-.12a.84.84,0,0,1,.26-.06h8.88a.4.4,0,0,1,.31.13.39.39,0,0,1,.13.31v3a.4.4,0,0,1-.13.31.43.43,0,0,1-.31.12h-7.31a.41.41,0,0,0-.3.12"/><path class="cls-1" d="M239.45,75h-8.67a2.12,2.12,0,0,1-.42,0,1.4,1.4,0,0,1-.41-.15l-2.1-2.1a1.25,1.25,0,0,1-.15-.41,2.37,2.37,0,0,1,0-.42V62.12a2.18,2.18,0,0,1,0-.42,1.24,1.24,0,0,1,.14-.4l2.1-2.11.35-.14a1.08,1.08,0,0,1,.28-.06h8.88a.46.46,0,0,1,.34.14.47.47,0,0,1,.15.35v3a.43.43,0,0,1-.15.34.42.42,0,0,1-.34.14h-7.31a.41.41,0,0,0-.27.1.36.36,0,0,0-.11.26V70.7a.41.41,0,0,0,.11.28.37.37,0,0,0,.27.11h7.31a.49.49,0,0,1,.34.12.43.43,0,0,1,.15.34v3a.43.43,0,0,1-.15.34.42.42,0,0,1-.34.14m-8.88-15.94a.93.93,0,0,0-.25.06,1.75,1.75,0,0,0-.32.12l-2.08,2.08a1.34,1.34,0,0,0-.12.37,2,2,0,0,0-.05.4v9.79a2.08,2.08,0,0,0,.05.4,1.15,1.15,0,0,0,.13.37L230,74.77a1.23,1.23,0,0,0,.37.12,2,2,0,0,0,.4,0h8.67a.38.38,0,0,0,.28-.12.37.37,0,0,0,.11-.27v-3a.33.33,0,0,0-.11-.26.41.41,0,0,0-.28-.11h-7.31a.47.47,0,0,1-.34-.13.5.5,0,0,1-.14-.35V63.32a.45.45,0,0,1,.14-.33.51.51,0,0,1,.34-.13h7.31a.38.38,0,0,0,.39-.38v-3a.38.38,0,0,0-.39-.39Z"/><path class="cls-1" d="M258.54,62.48a.4.4,0,0,1-.13.31.41.41,0,0,1-.3.12h-3.24a.45.45,0,0,0-.31.12.37.37,0,0,0-.12.29V74.55a.47.47,0,0,1-.11.31.42.42,0,0,1-.3.13h-3.17a.42.42,0,0,1-.3-.13.4.4,0,0,1-.13-.31V63.32a.4.4,0,0,0-.11-.29.41.41,0,0,0-.3-.12h-3.23a.43.43,0,0,1-.31-.12.44.44,0,0,1-.13-.31v-3a.39.39,0,0,1,.44-.44h11.32a.38.38,0,0,1,.3.13.39.39,0,0,1,.13.31Z"/><path class="cls-1" d="M254,75h-3.17a.44.44,0,0,1-.34-.14.46.46,0,0,1-.14-.34V63.32a.34.34,0,0,0-.1-.26A.36.36,0,0,0,250,63h-3.23a.42.42,0,0,1-.34-.14.43.43,0,0,1-.15-.34v-3a.44.44,0,0,1,.49-.49h11.32a.48.48,0,0,1,.34.14.5.5,0,0,1,.14.35v3a.46.46,0,0,1-.14.34.44.44,0,0,1-.34.14h-3.24a.41.41,0,0,0-.27.1.33.33,0,0,0-.11.26V74.55a.45.45,0,0,1-.13.34A.4.4,0,0,1,254,75m-7.24-15.94a.34.34,0,0,0-.39.39v3a.38.38,0,0,0,.39.38H250a.45.45,0,0,1,.33.13.44.44,0,0,1,.13.33V74.55a.37.37,0,0,0,.11.27.36.36,0,0,0,.27.12H254a.35.35,0,0,0,.26-.11.4.4,0,0,0,.1-.28V63.32a.45.45,0,0,1,.14-.33.51.51,0,0,1,.34-.13h3.24a.35.35,0,0,0,.27-.11.37.37,0,0,0,.11-.27v-3a.41.41,0,0,0-.11-.28.39.39,0,0,0-.27-.11Z"/><rect class="cls-1" x="265.03" y="59.04" width="4.01" height="15.94" rx="0.43"/><path class="cls-1" d="M268.6,75h-3.14a.43.43,0,0,1-.48-.48V59.48a.44.44,0,0,1,.48-.49h3.14a.44.44,0,0,1,.49.49V74.55a.43.43,0,0,1-.49.48m-3.14-15.94c-.26,0-.38.12-.38.39V74.55c0,.26.12.39.38.39h3.14a.34.34,0,0,0,.39-.39V59.48c0-.27-.12-.39-.39-.39Z"/><path class="cls-1" d="M290,61.32a2.6,2.6,0,0,1,.12.39,1.62,1.62,0,0,1,.06.41v9.79a1.62,1.62,0,0,1-.06.41,2.6,2.6,0,0,1-.12.39l-2.1,2.09a1.18,1.18,0,0,1-.39.14,2.37,2.37,0,0,1-.43,0h-7.22a2.27,2.27,0,0,1-.41,0,1.21,1.21,0,0,1-.38-.14L277,72.71a1.37,1.37,0,0,1-.13-.39,2.17,2.17,0,0,1-.05-.41V62.12a2.17,2.17,0,0,1,.05-.41,1.37,1.37,0,0,1,.13-.39l2.1-2.1.38-.12a1.69,1.69,0,0,1,.41-.06h7.22a1.77,1.77,0,0,1,.43.06l.39.12Zm-3.85,1.59h-5.35v8.23h5.35Z"/><path class="cls-1" d="M287.07,75h-7.22a2.27,2.27,0,0,1-.42,0,1.34,1.34,0,0,1-.4-.15l-2.1-2.1a1.25,1.25,0,0,1-.15-.41,2.18,2.18,0,0,1,0-.42V62.12a2.18,2.18,0,0,1,0-.42,1.34,1.34,0,0,1,.14-.4l2.1-2.11a2.47,2.47,0,0,1,.41-.14,1.76,1.76,0,0,1,.42-.06h7.22a1.92,1.92,0,0,1,.44.06,2.09,2.09,0,0,1,.4.13L290,61.29a2,2,0,0,1,.14.41,1.64,1.64,0,0,1,.06.42v9.79a1.64,1.64,0,0,1-.06.42,4,4,0,0,1-.12.4l-2.11,2.11a1.3,1.3,0,0,1-.42.15,2.47,2.47,0,0,1-.44,0m-7.22-15.94a1.55,1.55,0,0,0-.39.06,2.14,2.14,0,0,0-.38.12L277,61.35a1.32,1.32,0,0,0-.13.37,2,2,0,0,0,0,.4v9.79a2,2,0,0,0,0,.4,1.14,1.14,0,0,0,.14.37l2.08,2.09a1.26,1.26,0,0,0,.36.12,2.17,2.17,0,0,0,.4,0h7.22a2.37,2.37,0,0,0,.42,0,1.21,1.21,0,0,0,.38-.13L290,72.67c0-.09.07-.21.11-.36a2.08,2.08,0,0,0,.05-.4V62.12a2,2,0,0,0-.05-.4,3.49,3.49,0,0,0-.12-.38l-2.09-2.08a2.64,2.64,0,0,0-.38-.11,1.62,1.62,0,0,0-.41-.06Zm.94,12.09-.05-8.31h5.4l.05,8.27Zm0-8.22v8.18l5.3,0-.05-8.18Z"/><path class="cls-1" d="M310.75,59.17a.41.41,0,0,1,.12.31V74.55a.43.43,0,0,1-.12.31.46.46,0,0,1-.31.13h-3.28a.72.72,0,0,1-.36-.11.78.78,0,0,1-.28-.26l-5-9.29v9.22a.38.38,0,0,1-.43.44h-3.15a.39.39,0,0,1-.43-.44V59.48a.39.39,0,0,1,.43-.44h3.24a.72.72,0,0,1,.36.11.59.59,0,0,1,.28.26l5,9.31V59.48a.44.44,0,0,1,.44-.44h3.16a.42.42,0,0,1,.31.13"/><path class="cls-1" d="M310.44,75h-3.28a.77.77,0,0,1-.68-.39l-4.94-9.12v9a.43.43,0,0,1-.48.48h-3.15a.43.43,0,0,1-.48-.48V59.48a.44.44,0,0,1,.48-.49h3.24a.82.82,0,0,1,.39.11.78.78,0,0,1,.29.28l5,9.15V59.48a.48.48,0,0,1,.49-.49h3.16a.48.48,0,0,1,.48.49V74.55a.42.42,0,0,1-.14.34.44.44,0,0,1-.34.14m-8.91-9.73,5,9.3a.72.72,0,0,0,.25.24.77.77,0,0,0,.34.1h3.28a.34.34,0,0,0,.27-.12.33.33,0,0,0,.11-.27V59.48a.38.38,0,0,0-.38-.39h-3.16a.38.38,0,0,0-.39.39v9.24l-.09,0-5.06-9.32a.58.58,0,0,0-.25-.24.66.66,0,0,0-.34-.1h-3.24c-.26,0-.38.12-.38.39V74.55c0,.26.12.39.38.39h3.15c.26,0,.38-.13.38-.39V65.33Z"/><path class="cls-2" d="M40.28,74.67a2,2,0,0,1-2-2V45.81H33.39a2,2,0,0,1-2-2V30.74a2,2,0,0,1,2-2h4.92V2a2,2,0,0,1,2-2H55.17a2,2,0,0,1,2,2V72.7a2,2,0,0,1-2,2Z"/><path class="cls-1" d="M2,74.67a2,2,0,0,1-2-2V2A2,2,0,0,1,2,0H16.86a2,2,0,0,1,2,2V28.76h5a2,2,0,0,1,2,2v13.1a2,2,0,0,1-2,2h-5V72.7a2,2,0,0,1-2,2Z"/></g></g></svg>