<svg height="448pt" viewBox="0 0 448 448" width="448pt" xmlns="http://www.w3.org/2000/svg"><path d="m280 144h16v16h-16zm0 0"/><path d="m96 0h256v16h-256zm0 0"/><path d="m280 80h16v16h-16zm0 0"/><path d="m344 384h80v-256h-80zm16-232c0-4.417969 3.582031-8 8-8h32c4.417969 0 8 3.582031 8 8v32c0 4.417969-3.582031 8-8 8h-32c-4.417969 0-8-3.582031-8-8zm0 64c0-4.417969 3.582031-8 8-8h32c4.417969 0 8 3.582031 8 8v32c0 4.417969-3.582031 8-8 8h-32c-4.417969 0-8-3.582031-8-8zm0 64c0-4.417969 3.582031-8 8-8h32c4.417969 0 8 3.582031 8 8v32c0 4.417969-3.582031 8-8 8h-32c-4.417969 0-8-3.582031-8-8zm0 0"/><path d="m376 288h16v16h-16zm0 0"/><path d="m280 208h16v16h-16zm0 0"/><path d="m152 208h16v16h-16zm0 0"/><path d="m152 80h16v16h-16zm0 0"/><path d="m216 208h16v16h-16zm0 0"/><path d="m152 144h16v16h-16zm0 0"/><path d="m216 144h16v16h-16zm0 0"/><path d="m216 80h16v16h-16zm0 0"/><path d="m8 96h96v16h-96zm0 0"/><path d="m56 160h16v16h-16zm0 0"/><path d="m344 96h96v16h-96zm0 0"/><path d="m376 160h16v16h-16zm0 0"/><path d="m0 432h448v16h-448zm0 0"/><path d="m24 128v256h80v-256zm64 184c0 4.417969-3.582031 8-8 8h-32c-4.417969 0-8-3.582031-8-8v-32c0-4.417969 3.582031-8 8-8h32c4.417969 0 8 3.582031 8 8zm0-64c0 4.417969-3.582031 8-8 8h-32c-4.417969 0-8-3.582031-8-8v-32c0-4.417969 3.582031-8 8-8h32c4.417969 0 8 3.582031 8 8zm0-64c0 4.417969-3.582031 8-8 8h-32c-4.417969 0-8-3.582031-8-8v-32c0-4.417969 3.582031-8 8-8h32c4.417969 0 8 3.582031 8 8zm0 0"/><path d="m328 384v-352h-208v352h48v-56c0-30.929688 25.070312-56 56-56s56 25.070312 56 56v56zm-144-152c0 4.417969-3.582031 8-8 8h-32c-4.417969 0-8-3.582031-8-8v-32c0-4.417969 3.582031-8 8-8h32c4.417969 0 8 3.582031 8 8zm0-64c0 4.417969-3.582031 8-8 8h-32c-4.417969 0-8-3.582031-8-8v-32c0-4.417969 3.582031-8 8-8h32c4.417969 0 8 3.582031 8 8zm0-64c0 4.417969-3.582031 8-8 8h-32c-4.417969 0-8-3.582031-8-8v-32c0-4.417969 3.582031-8 8-8h32c4.417969 0 8 3.582031 8 8zm64 128c0 4.417969-3.582031 8-8 8h-32c-4.417969 0-8-3.582031-8-8v-32c0-4.417969 3.582031-8 8-8h32c4.417969 0 8 3.582031 8 8zm0-64c0 4.417969-3.582031 8-8 8h-32c-4.417969 0-8-3.582031-8-8v-32c0-4.417969 3.582031-8 8-8h32c4.417969 0 8 3.582031 8 8zm0-64c0 4.417969-3.582031 8-8 8h-32c-4.417969 0-8-3.582031-8-8v-32c0-4.417969 3.582031-8 8-8h32c4.417969 0 8 3.582031 8 8zm16-32c0-4.417969 3.582031-8 8-8h32c4.417969 0 8 3.582031 8 8v32c0 4.417969-3.582031 8-8 8h-32c-4.417969 0-8-3.582031-8-8zm0 64c0-4.417969 3.582031-8 8-8h32c4.417969 0 8 3.582031 8 8v32c0 4.417969-3.582031 8-8 8h-32c-4.417969 0-8-3.582031-8-8zm8 104c-4.417969 0-8-3.582031-8-8v-32c0-4.417969 3.582031-8 8-8h32c4.417969 0 8 3.582031 8 8v32c0 4.417969-3.582031 8-8 8zm0 0"/><path d="m16 400h416v16h-416zm0 0"/><path d="m224 288c-22.082031.027344-39.972656 17.917969-40 40v56h80v-56c-.027344-22.082031-17.917969-39.972656-40-40zm0 0"/><path d="m376 224h16v16h-16zm0 0"/><path d="m56 288h16v16h-16zm0 0"/><path d="m56 224h16v16h-16zm0 0"/></svg>