<svg height="448pt" viewBox="0 0 448 448" width="448pt" xmlns="http://www.w3.org/2000/svg"><path d="m240 120v-8h-208v8c0 4.417969 3.582031 8 8 8h192c4.417969 0 8-3.582031 8-8zm0 0"/><path d="m32 240h384v144h-384zm0 0"/><path d="m448 448v-240h-448v240h16v-216c0-4.417969 3.582031-8 8-8h400c4.417969 0 8 3.582031 8 8v216zm0 0"/><path d="m120 144h32v16h-32zm0 0"/><path d="m321.761719 192h11.992187l-6.664062-26.65625zm0 0"/><path d="m417.441406 128h-79.679687l12.796875 64h79.679687zm0 0"/><path d="m176 184c0-4.417969-3.582031-8-8-8h-64c-4.417969 0-8 3.582031-8 8v8h80zm0 0"/><path d="m232 0h-192c-4.417969 0-8 3.582031-8 8v88h208v-88c0-4.417969-3.582031-8-8-8zm0 0"/></svg>