<svg id="svg14514" height="512" viewBox="0 0 16.933333 16.933334" width="512" xmlns="http://www.w3.org/2000/svg" xmlns:svg="http://www.w3.org/2000/svg"><g id="layer1" transform="translate(0 -280.067)"><path id="path6069" d="m1.8639674 282.44738c-.00897-.00026-.017939-.00012-.026871.00053-.089344.005-.1700292.0551-.2144581.13281l-.1736328.30076c.267552.0501.497385.23532.596863.49506l1.4815635 3.86229 2.4272426-4.20336-4.0648679-.58549c-.00857-.001-.017198-.002-.02585-.003zm4.5919681.7798-2.7869092 4.82761.00466.28732 1.2464336.71986 2.9109357-5.04156zm-5.1500723.16898c-.095803-.00053-.1843537.051-.2315104.13436l-.51107979.90382c-.033343.059-.042783.12855-.026353.1943l.77514449 3.10059-.76946119 2.30787c-.00894.027-.013494.0553-.013441.0837v.26509h1.94923569c.4095565-.33046.9287986-.52968 1.4913848-.52968h-.7994352l-.036174-2.12132c-.0005292-.0308-.00654-.0612-.017568-.0899l-1.5647644-4.07882c-.039044-.10201-.1367551-.16955-.2459778-.17002zm2.6639203 6.46007c.5621602 0 1.0804472.19958 1.4893131.52968h4.5950694v-1.58801c.000016-.0865-.04224-.16754-.1131704-.21704l-.758095-.52917c-.127516-.0888-.303707-.0491-.380854.0858l-.982369 1.71876zm4.2788071-5.50251-2.8308351 4.90358.3937741.0698h1.701189l.829924-1.45211c.227359-.39745.767024-.51894 1.143082-.25735l.162263.11317.4883444-.84543c.05614-.0962.04601-.21727-.02532-.30282zm3.1290084.21136c-.435161 0-.794782.35808-.794782.79324v5.02759h.891418c.408863-.3301.927153-.52968 1.489313-.52968.562568 0 1.081429.19924 1.490866.52968h1.42162v-2.38125c-.000244-.0258-.0043-.0514-.01188-.076l-.789099-2.62516c-.03827-.1786-.110857-.35416-.240294-.4961-.129437-.14193-.3272-.24236-.546738-.24236zm.529685 1.05678h1.962671a.26460982.26460982 0 0 1 .25373.18966l.633037 2.11718a.26460982.26460982 0 0 1 -.252182.33952h-1.275374a.26460982.26460982 0 0 1 -.187584-.076l-.451136-.4532h-.683162a.26460982.26460982 0 0 1 -.266134-.26355v-1.59008a.26460982.26460982 0 0 1 .266134-.26356zm-.01085 3.17552a.2648413.2648413 0 0 1 .01085 0h.529166a.264845.264845 0 1 1 0 .52969h-.529166a.26490056.26490056 0 0 1 -.01085-.52969zm-7.9266525 1.58802c-1.0197439 0-1.8536338.83182-1.8536338 1.85157 0 1.01974.8338899 1.85156 1.8536338 1.85156s1.8515648-.83182 1.8515648-1.85156c0-1.01975-.8318209-1.85157-1.8515648-1.85157zm8.9937645 0c-1.019744 0-1.851565.83182-1.851565 1.85157 0 1.01974.831821 1.85156 1.851565 1.85156s1.853634-.83182 1.853634-1.85156c0-1.01975-.83389-1.85157-1.853634-1.85157zm-12.43438239.52968c.00185.44063.00106.88126.00106 1.32189-.0005292.14611.11743.26503.2635488.26561h.80873829c-.00987-.0873-.016034-.17578-.016034-.26561.0000026-.48802.1500505-.9429.4056618-1.32189zm5.41620609 0c.2551589.37901.4051432.83412.4051432 1.32189 0 .0898-.00616.17829-.016007.26561h4.2643371c-.0098-.0873-.01601-.17581-.01601-.26561 0-.48777.149984-.94288.405143-1.32189zm8.9953173 0c.255519.37899.40566.83387.40566 1.32189 0 .0898-.0062.17827-.01601.26561h.809242c.146928.00053.266176-.11869.265617-.26561v-1.05834c-.000529-.14612-.119496-.26411-.265617-.26355zm-10.9709055.52917c.4352369 0 .7927102.35748.7927155.79272.0000026.43524-.3574706.7953-.7927155.7953s-.7953031-.36006-.7953005-.7953c.0000053-.43524.3600636-.79272.7953005-.79272zm8.9937645 0c.43524 0 .795295.35748.795301.79272.000002.43524-.360053.7953-.795301.7953-.435242 0-.792718-.36006-.792715-.7953.000005-.43524.357481-.79272.792715-.79272z" font-variant-ligatures="normal" font-variant-position="normal" font-variant-caps="normal" font-variant-numeric="normal" font-variant-alternates="normal" font-feature-settings="normal" text-indent="0" text-align="start" text-decoration-line="none" text-decoration-style="solid" text-decoration-color="rgb(0,0,0)" text-transform="none" text-orientation="mixed" white-space="normal" shape-padding="0" isolation="auto" mix-blend-mode="normal" solid-color="rgb(0,0,0)" solid-opacity="1" vector-effect="none"/></g></svg>